<svg xmlns="http://www.w3.org/2000/svg" viewBox="0 0 64 64" x="0px" y="0px">
    <title>baby-clone-technology-science-medical-cloning</title>
    <g data-name="24-fetal cloning">
        <path
            d="M58.316,26.052,53,24.28V21a21,21,0,0,0-42,0v3.28L5.684,26.052A1,1,0,0,0,5,27V39a1,1,0,0,0,.684.948L11,41.72V58a3,3,0,0,0,0,6H53a3,3,0,0,0,0-6V41.72l5.316-1.772A1,1,0,0,0,59,39V27A1,1,0,0,0,58.316,26.052ZM36.553,45.9l1.209.6a.431.431,0,0,1,.238.386.426.426,0,0,1-.189.358.432.432,0,0,1-.4.044l-.6-.242a7.411,7.411,0,0,1-3.429-2.782,1.936,1.936,0,0,0-1.28-.831,1.857,1.857,0,0,0-.324-.028,1.941,1.941,0,0,0-1.161.386A5.5,5.5,0,0,1,22.1,41.13l-.429-1.287a5.86,5.86,0,0,1,0-3.686,20.109,20.109,0,0,1,7.887-10.325,1,1,0,0,0,.152-.125l1-1a1.006,1.006,0,0,0,.242-.391l.408-1.228a4.985,4.985,0,0,1,6.3-3.15l.708.237a4.906,4.906,0,0,1,3.259,5.615l-.368,1.842A2.945,2.945,0,0,1,38.366,30H38a1,1,0,0,0-.447.105l-1.166.584A2.963,2.963,0,0,1,35.068,31h-.434a2.963,2.963,0,0,1-2.082-.862l-.845-.845A1,1,0,0,0,30,30v1.172a5.868,5.868,0,0,1-1.707,4.121,1,1,0,0,0,.269,1.605l5.878,2.867a3.6,3.6,0,0,1,1.661,4.8A1,1,0,0,0,36.553,45.9Zm-5.185-9.853-.785-.383c.12-.172.223-.356.329-.537l4.568.57a13.818,13.818,0,0,0,5.105-.308l.113-.028A11.974,11.974,0,0,1,43.591,35H44a4.212,4.212,0,0,0,3.789-2.342L48,32.236A2.224,2.224,0,0,1,50,31h1v1.117a4.211,4.211,0,0,0-2.789,2.225L48,34.764A2.224,2.224,0,0,1,46,36H43.591a13.948,13.948,0,0,0-3.377.416,11.852,11.852,0,0,1-4.579.235ZM47.463,10H45.49a15.973,15.973,0,0,0-8.023-5.336L36.2,4.3,36.632,2.6A19.028,19.028,0,0,1,47.463,10Zm-12.8-7.79L34.219,4H29.781l-.448-1.79a17.04,17.04,0,0,1,5.334,0Zm-7.3.385L27.8,4.3l-1.263.36A15.973,15.973,0,0,0,18.51,10H16.537A19.028,19.028,0,0,1,27.368,2.6ZM7,27.721l1-.334V38.613l-1-.334Zm3,11.558V26.721l1-.333V39.612ZM54,61a1,1,0,0,1-1,1H11a1,1,0,0,1,0-2H53A1,1,0,0,1,54,61ZM13,58V21a18.882,18.882,0,0,1,2.273-9H19a1,1,0,0,0,.8-.4,13.939,13.939,0,0,1,7.282-5.012L29.141,6h5.718l2.059.588A13.939,13.939,0,0,1,44.2,11.6a1,1,0,0,0,.8.4h3.727A18.882,18.882,0,0,1,51,21v8H50a4.212,4.212,0,0,0-3.789,2.342L46,31.764A2.224,2.224,0,0,1,44,33h-.409a13.948,13.948,0,0,0-3.377.416l-.114.028a11.894,11.894,0,0,1-4.371.264l-4.007-.5a7.881,7.881,0,0,0,.21-1.013,4.979,4.979,0,0,0,2.7.806h.434a4.991,4.991,0,0,0,2.212-.521L38.236,32h.13a4.946,4.946,0,0,0,4.849-3.975l.368-1.842A6.9,6.9,0,0,0,39,18.278l-.708-.237a6.984,6.984,0,0,0-8.828,4.414l-.334,1.005-.764.764a22.131,22.131,0,0,0-8.591,11.3,7.882,7.882,0,0,0,0,4.952l.429,1.287a7.5,7.5,0,0,0,11.554,3.671A9.4,9.4,0,0,0,36.062,48.9l.6.243A2.433,2.433,0,0,0,40,46.885a2.418,2.418,0,0,0-1.345-2.175l-.4-.2a5.6,5.6,0,0,0-1.785-5.767c.287.018.574.03.86.03a13.849,13.849,0,0,0,3.371-.416A11.974,11.974,0,0,1,43.591,38H46a4.212,4.212,0,0,0,3.789-2.342L50,35.236a2.214,2.214,0,0,1,1-.982V58ZM53,33V26.388l1,.333V39.279l-1,.333Zm4,5.279-1,.334V27.387l1,.334Z" />
    </g>
</svg>